<svg width="35" height="29" viewBox="0 0 35 29" fill="none" xmlns="http://www.w3.org/2000/svg">
<g id="Vector">
<path d="M31.4286 28.5C33.0065 28.5 34.2857 27.2464 34.2857 25.7C34.2857 24.1536 33.0065 22.9 31.4286 22.9C29.8506 22.9 28.5714 24.1536 28.5714 25.7C28.5714 27.2464 29.8506 28.5 31.4286 28.5Z" fill="white"/>
<path d="M10.7143 28.5C12.2923 28.5 13.5715 27.2464 13.5715 25.7C13.5715 24.1536 12.2923 22.9 10.7143 22.9C9.13639 22.9 7.85721 24.1536 7.85721 25.7C7.85721 27.2464 9.13639 28.5 10.7143 28.5Z" fill="white"/>
<path d="M33.5714 19.4H11.265L11.7414 18.6426C11.9457 18.3178 12.0057 17.9251 11.9079 17.5555L11.4429 15.8013L32.145 14.7471C32.93 14.7079 33.5714 14.045 33.5714 13.275V4C33.5714 3.23 32.9286 2.6 32.1429 2.6H7.94214L7.66286 1.5479C7.58329 1.24783 7.40434 0.982129 7.15407 0.792478C6.90379 0.602828 6.59636 0.499956 6.28 0.5H1.42857C1.04969 0.5 0.686328 0.6475 0.418419 0.910051C0.15051 1.1726 0 1.5287 0 1.9C0 2.2713 0.15051 2.6274 0.418419 2.88995C0.686328 3.1525 1.04969 3.3 1.42857 3.3H5.17571L8.99 17.6815L7.49 20.065C7.35658 20.2771 7.28338 20.5202 7.27798 20.7693C7.27258 21.0184 7.33517 21.2644 7.45929 21.4818C7.58289 21.6995 7.76362 21.8809 7.98276 22.0072C8.20191 22.1334 8.4515 22.2 8.70571 22.2H33.5714C33.9503 22.2 34.3137 22.0525 34.5816 21.79C34.8495 21.5274 35 21.1713 35 20.8C35 20.4287 34.8495 20.0726 34.5816 19.8101C34.3137 19.5475 33.9503 19.4 33.5714 19.4Z" fill="white"/>
</g>
</svg>
