
<svg width="43" height="26" viewBox="0 0 43 26" fill="none" xmlns="http://www.w3.org/2000/svg">
<path d="M43 8.05147V18.675C43 20.5117 41.5158 22 39.6842 22H22.3158C21.4364 22 20.593 21.6497 19.9712 21.0261C19.3493 20.4026 19 19.5568 19 18.675V8.05147L30.6198 14.4608C30.8566 14.5913 31.144 14.5913 31.3802 14.4608L43 8.05083V8.05147ZM39.6842 3C40.5498 3.00008 41.381 3.33956 42.0003 3.94593C42.6196 4.5523 42.978 5.37748 42.9987 6.2452L31 12.8635L19.0013 6.24457L19.0025 6.18757C19.0379 5.3302 19.4024 4.51974 20.0199 3.92567C20.6374 3.3316 21.4601 2.99992 22.3158 3H39.6842Z" fill="#767676"/>
<path d="M13 1.3391e-06C16.4478 1.18839e-06 19.7544 1.36964 22.1924 3.80761C24.6304 6.24559 26 9.55219 26 13C26 16.4478 24.6304 19.7544 22.1924 22.1924C19.7544 24.6304 16.4478 26 13 26L13 13L13 1.3391e-06Z" fill="white"/>
<path d="M13.0233 16.6605L11.3504 15.6942C11.1257 15.5663 10.8687 15.5063 10.6106 15.5217C10.3525 15.537 10.1044 15.627 9.89647 15.7807L8.46069 16.8537C8.25137 17.012 8.09359 17.2288 8.00724 17.4767C7.92089 17.7246 7.90983 17.9925 7.97546 18.2468L8.76483 21.1927C8.81242 21.3649 8.89434 21.5256 9.00566 21.6653C9.11697 21.8049 9.25538 21.9206 9.41255 22.0053C9.56972 22.09 9.7424 22.1421 9.9202 22.1583C10.098 22.1745 10.2772 22.1546 10.4471 22.0997C21.526 18.3796 21.2418 8.22547 20.693 4.45725C20.6648 4.27251 20.598 4.09581 20.4967 3.93878C20.3954 3.78175 20.2621 3.64793 20.1054 3.54615C19.9487 3.44436 19.7723 3.37691 19.5877 3.34823C19.4031 3.31954 19.2146 3.33028 19.0344 3.37973L16.1898 4.14196C15.9361 4.21073 15.7088 4.35384 15.5372 4.55289C15.3655 4.75193 15.2574 4.99781 15.2265 5.25889L15.0156 7.03942C14.9833 7.2963 15.0273 7.55704 15.1422 7.78905C15.2572 8.02107 15.4379 8.21407 15.6618 8.34397L17.3347 9.31027C17.3347 9.31027 17.9532 14.6575 13.0233 16.6605Z" fill="#767676"/>
</svg>
