<svg width="98" height="98" viewBox="0 0 98 98" fill="none" xmlns="http://www.w3.org/2000/svg">
<path d="M0 46.2794C0.451576 43.5494 0.797813 40.797 1.37165 38.093C5.42045 19.0144 21.9227 3.46613 41.1184 0.582979C65.4236 -3.06761 87.9324 10.7112 95.6047 33.9368C104.512 60.8998 87.6799 90.5534 60.0023 96.6089C57.3601 97.1869 54.669 97.5416 52.0006 98H46.1138C43.3955 97.5368 40.6217 97.2828 37.9678 96.577C18.6048 91.4281 6.34104 79.1397 1.37945 59.6819C0.699777 57.0164 0.449226 54.2413 0 51.517V46.2794ZM94.9475 48.8935C95.1734 23.7168 74.3299 2.93471 49.1053 2.90603C24.1234 2.87763 2.99238 23.4734 3.15514 49.1635C3.31498 74.3941 23.803 94.8234 49.2091 94.8062C74.503 94.7891 94.9786 74.2354 94.9475 48.8935Z" fill="url(#paint0_linear_1_856)"/>
<path d="M12.7545 31.3997C18.6278 18.5293 32.7637 7.94283 50.2541 8.4708C67.9109 9.0038 80.4932 20.5561 85.0521 30.9986C80.8521 32.3786 78.9035 35.844 77.847 39.6692C76.1556 45.793 74.9943 52.0614 73.4656 58.2331C72.6185 61.6533 71.547 65.0237 70.424 68.3651C70.1624 69.1435 69.28 69.7128 68.6832 70.3783C68.0842 69.7124 67.1975 69.144 66.9335 68.3645C65.3834 63.7867 63.9549 59.1669 62.5319 54.5468C61.3159 50.5989 60.3089 46.5793 58.9242 42.6932C58.1264 40.4927 57.0271 38.4138 55.6578 36.5161C52.0858 31.5448 46.1279 31.3844 42.7001 36.4444C40.6971 39.4012 39.324 42.9102 38.2633 46.3546C36.3764 52.4813 34.983 58.7589 33.2877 64.9471C32.89 66.399 32.2137 67.803 31.4814 69.1269C30.6244 70.6765 29.9206 70.72 28.7879 69.3053C28.0496 68.3831 27.3054 67.3421 26.9816 66.2322C25.5672 61.3829 24.3355 56.4806 22.9797 51.6136C21.6975 47.0111 20.4963 42.3768 18.9664 37.8558C17.9635 34.8924 15.9703 32.5516 12.7545 31.3997Z" fill="url(#paint1_linear_1_856)"/>
<path d="M8.35224 48.3476C8.88111 45.2754 9.44477 41.6814 10.1401 38.113C10.4347 36.6012 11.3704 36.3577 12.3587 37.5383C13.1478 38.4811 13.9207 39.579 14.2552 40.7371C15.6722 45.6422 16.8772 50.6083 18.2475 55.5276C19.5152 60.0788 20.7184 64.662 22.3104 69.1017C22.9594 70.9118 24.3363 72.6192 25.7702 73.9562C28.986 76.9545 33.084 76.3767 35.6344 72.7903C37.9889 69.4794 38.9267 65.5934 39.9634 61.7592C41.5105 56.0372 42.936 50.2802 44.6009 44.5932C45.1095 42.8559 46.0897 41.2011 47.1154 39.6859C48.3152 37.9135 49.9535 37.8213 51.0591 39.652C52.5616 42.14 53.9148 44.808 54.7842 47.5715C56.7419 53.7943 58.2523 60.1575 60.1781 66.3914C60.909 68.7278 61.9873 70.9407 63.3769 72.9555C66.1702 76.9976 70.9011 76.9862 73.9572 73.1135C76.1376 70.3506 77.1148 67.0373 77.8934 63.6923C79.4838 56.8606 80.8715 49.9805 82.5399 43.1687C83.0213 41.2031 84.0887 39.3549 85.0758 37.5563C85.3598 37.0388 86.2923 36.6779 86.9451 36.6493C87.2601 36.6356 87.7715 37.5142 87.9309 38.0649C94.5589 60.975 79.0063 85.1411 55.576 88.8522C33.6491 92.3253 13.3896 77.5622 9.41332 56.7039C8.92551 54.1451 8.74716 51.5272 8.35224 48.3476Z" fill="url(#paint2_linear_1_856)"/>
<defs>
<linearGradient id="paint0_linear_1_856" x1="98" y1="49" x2="-1.26918e-07" y2="49" gradientUnits="userSpaceOnUse">
<stop stop-color="#D9281C"/>
<stop offset="1" stop-color="#FF5145"/>
</linearGradient>
<linearGradient id="paint1_linear_1_856" x1="98" y1="49" x2="-1.26918e-07" y2="49" gradientUnits="userSpaceOnUse">
<stop stop-color="#D9281C"/>
<stop offset="1" stop-color="#FF5145"/>
</linearGradient>
<linearGradient id="paint2_linear_1_856" x1="98" y1="49" x2="-1.26918e-07" y2="49" gradientUnits="userSpaceOnUse">
<stop stop-color="#D9281C"/>
<stop offset="1" stop-color="#FF5145"/>
</linearGradient>
</defs>
</svg>
