<svg width="32" height="28" viewBox="0 0 32 28" fill="none" xmlns="http://www.w3.org/2000/svg">
<path d="M1.27048e-07 8.40101C-0.000196771 7.28475 0.228473 6.17965 0.672645 5.15029C1.11682 4.12094 1.76758 3.18798 2.5869 2.40594C3.40622 1.6239 4.37767 1.00847 5.44446 0.595616C6.51125 0.182763 7.65199 -0.019231 8.8 0.00144048C10.1583 -0.00557237 11.5027 0.268157 12.744 0.804487C13.9853 1.34082 15.0951 2.1275 16 3.11239C16.9049 2.1275 18.0147 1.34082 19.256 0.804487C20.4973 0.268157 21.8417 -0.00557237 23.2 0.00144048C24.348 -0.019231 25.4888 0.182763 26.5555 0.595616C27.6223 1.00847 28.5938 1.6239 29.4131 2.40594C30.2324 3.18798 30.8832 4.12094 31.3274 5.15029C31.7715 6.17965 32.0002 7.28475 32 8.40101C32 16.7321 21.7936 23.0225 16 28C10.2192 22.9805 1.27048e-07 16.7384 1.27048e-07 8.40101Z" fill="white"/>
</svg>
