<svg width="55" height="55" viewBox="0 0 55 55" fill="none" xmlns="http://www.w3.org/2000/svg">
<path d="M0 25.9732C0.253435 24.441 0.447752 22.8963 0.769801 21.3787C3.04209 10.6713 12.3036 1.94528 23.0767 0.327182C36.7173 -1.72162 49.3498 6.01137 53.6557 19.0462C58.6545 34.1785 49.2081 50.8208 33.6748 54.2193C32.1919 54.5437 30.6816 54.7427 29.184 55H25.8802C24.3546 54.7401 22.7979 54.5975 21.3084 54.2014C10.4415 51.3117 3.55875 44.4152 0.774183 33.4949C0.392732 31.999 0.252117 30.4416 0 28.9126V25.9732ZM53.2869 27.4402C53.4137 13.3104 41.7158 1.64703 27.5591 1.63094C13.5387 1.615 1.6794 13.1738 1.77074 27.5918C1.86045 41.7518 13.3588 53.2172 27.6174 53.2076C41.8129 53.198 53.3043 41.6627 53.2869 27.4402Z" fill="white"/>
<path d="M7.15813 17.6223C10.4544 10.3991 18.3878 4.45771 28.2038 4.75402C38.1133 5.05315 45.1748 11.5366 47.7333 17.3972C45.3762 18.1717 44.2826 20.1166 43.6897 22.2633C42.7404 25.7002 42.0886 29.2181 41.2307 32.6818C40.7553 34.6013 40.1539 36.4929 39.5237 38.3682C39.3769 38.805 38.8816 39.1245 38.5467 39.498C38.2105 39.1243 37.7129 38.8053 37.5647 38.3678C36.6947 35.7986 35.893 33.2059 35.0944 30.613C34.412 28.3973 33.8468 26.1414 33.0697 23.9605C32.622 22.7255 32.005 21.5588 31.2365 20.4937C29.2318 17.7037 25.8881 17.6137 23.9643 20.4535C22.8402 22.1129 22.0696 24.0823 21.4743 26.0153C20.4153 29.4538 19.6333 32.9769 18.6819 36.4499C18.4587 37.2647 18.0791 38.0527 17.6682 38.7957C17.1871 39.6654 16.7922 39.6898 16.1565 38.8958C15.7421 38.3782 15.3244 37.794 15.1428 37.1711C14.3489 34.4496 13.6577 31.6983 12.8968 28.9668C12.1772 26.3838 11.503 23.7829 10.6444 21.2456C10.0815 19.5825 8.9629 18.2688 7.15813 17.6223Z" fill="white"/>
<path d="M4.68748 27.1339C4.9843 25.4097 5.30064 23.3926 5.6909 21.3899C5.85623 20.5415 6.38136 20.4048 6.93598 21.0674C7.37889 21.5965 7.81264 22.2127 8.00038 22.8626C8.79561 25.6155 9.47191 28.4026 10.2409 31.1634C10.9524 33.7177 11.6277 36.2899 12.5211 38.7816C12.8854 39.7974 13.6581 40.7557 14.4629 41.506C16.2676 43.1887 18.5675 42.8644 19.9989 40.8517C21.3203 38.9935 21.8466 36.8126 22.4284 34.6608C23.2967 31.4494 24.0967 28.2185 25.0311 25.0268C25.3165 24.0518 25.8667 23.1231 26.4423 22.2727C27.1157 21.278 28.0351 21.2262 28.6556 22.2537C29.4989 23.65 30.2583 25.1473 30.7462 26.6983C31.845 30.1907 32.6926 33.7619 33.7734 37.2605C34.1836 38.5717 34.7888 39.8136 35.5687 40.9444C37.1363 43.213 39.7914 43.2065 41.5066 41.0331C42.7303 39.4825 43.2787 37.623 43.7157 35.7457C44.6082 31.9115 45.3871 28.0503 46.3234 24.2273C46.5936 23.1242 47.1927 22.0869 47.7466 21.0775C47.906 20.7871 48.4294 20.5845 48.7957 20.5685C48.9725 20.5608 49.2595 21.0539 49.349 21.363C53.0687 34.2207 44.3403 47.7833 31.1906 49.8661C18.8847 51.8152 7.51459 43.5298 5.28298 31.8236C5.00921 30.3876 4.90912 28.9183 4.68748 27.1339Z" fill="white"/>
</svg>
