
<svg width="255" height="55" viewBox="0 0 255 55" fill="none" xmlns="http://www.w3.org/2000/svg">
<path d="M0 25.9732C0.253435 24.441 0.447752 22.8963 0.769801 21.3787C3.04209 10.6713 12.3036 1.94528 23.0767 0.327182C36.7173 -1.72162 49.3498 6.01137 53.6557 19.0462C58.6545 34.1785 49.2081 50.8208 33.6748 54.2193C32.1919 54.5437 30.6816 54.7427 29.184 55H25.8802C24.3546 54.7401 22.7979 54.5975 21.3084 54.2014C10.4415 51.3117 3.55875 44.4152 0.774183 33.4949C0.392732 31.999 0.252117 30.4416 0 28.9126V25.9732ZM53.2869 27.4402C53.4137 13.3104 41.7158 1.64703 27.5591 1.63094C13.5387 1.615 1.6794 13.1738 1.77074 27.5918C1.86045 41.7518 13.3588 53.2172 27.6174 53.2076C41.8129 53.198 53.3043 41.6627 53.2869 27.4402Z" fill="white"/>
<path d="M7.15813 17.6223C10.4544 10.3991 18.3878 4.45771 28.2038 4.75402C38.1133 5.05315 45.1748 11.5366 47.7333 17.3972C45.3762 18.1717 44.2826 20.1166 43.6897 22.2633C42.7404 25.7002 42.0886 29.2181 41.2307 32.6818C40.7553 34.6013 40.1539 36.4929 39.5237 38.3682C39.3769 38.805 38.8816 39.1245 38.5467 39.498C38.2105 39.1243 37.7129 38.8053 37.5647 38.3678C36.6947 35.7986 35.893 33.2059 35.0944 30.613C34.412 28.3973 33.8468 26.1414 33.0697 23.9605C32.622 22.7255 32.005 21.5588 31.2365 20.4937C29.2318 17.7037 25.8881 17.6137 23.9643 20.4535C22.8402 22.1129 22.0696 24.0823 21.4743 26.0153C20.4153 29.4538 19.6333 32.9769 18.6819 36.4499C18.4587 37.2647 18.0791 38.0527 17.6682 38.7957C17.1871 39.6654 16.7922 39.6898 16.1565 38.8958C15.7421 38.3782 15.3244 37.794 15.1428 37.1711C14.3489 34.4496 13.6577 31.6983 12.8968 28.9668C12.1772 26.3838 11.503 23.7829 10.6444 21.2456C10.0815 19.5825 8.9629 18.2688 7.15813 17.6223Z" fill="white"/>
<path d="M4.68748 27.1339C4.9843 25.4097 5.30064 23.3926 5.6909 21.3899C5.85623 20.5415 6.38136 20.4048 6.93598 21.0674C7.37889 21.5965 7.81264 22.2127 8.00038 22.8626C8.79561 25.6155 9.47191 28.4026 10.2409 31.1634C10.9524 33.7177 11.6277 36.2899 12.5211 38.7816C12.8854 39.7974 13.6581 40.7557 14.4629 41.506C16.2676 43.1887 18.5675 42.8644 19.9989 40.8517C21.3203 38.9935 21.8466 36.8126 22.4284 34.6608C23.2967 31.4494 24.0967 28.2185 25.0311 25.0268C25.3165 24.0518 25.8667 23.1231 26.4423 22.2727C27.1157 21.278 28.0351 21.2262 28.6556 22.2537C29.4989 23.65 30.2583 25.1473 30.7462 26.6983C31.845 30.1907 32.6926 33.7619 33.7734 37.2605C34.1836 38.5717 34.7888 39.8136 35.5687 40.9444C37.1363 43.213 39.7914 43.2065 41.5066 41.0331C42.7303 39.4825 43.2787 37.623 43.7157 35.7457C44.6082 31.9115 45.3871 28.0503 46.3234 24.2273C46.5936 23.1242 47.1927 22.0869 47.7466 21.0775C47.906 20.7871 48.4294 20.5845 48.7957 20.5685C48.9725 20.5608 49.2595 21.0539 49.349 21.363C53.0687 34.2207 44.3403 47.7833 31.1906 49.8661C18.8847 51.8152 7.51459 43.5298 5.28298 31.8236C5.00921 30.3876 4.90912 28.9183 4.68748 27.1339Z" fill="white"/>
<path d="M78.2344 41V15.3008H83.6836V41H78.2344ZM110.824 41H104.637L97.9043 30.1719L95.6016 31.8242V41H90.1523V15.3008H95.6016V27.0605L97.7461 24.0371L104.707 15.3008H110.754L101.789 26.6738L110.824 41ZM114.059 41V15.3008H119.508V41H114.059ZM141.146 33.8633C141.146 36.1836 140.309 38.0117 138.633 39.3477C136.969 40.6836 134.648 41.3516 131.672 41.3516C128.93 41.3516 126.504 40.8359 124.395 39.8047V34.7422C126.129 35.5156 127.594 36.0605 128.789 36.377C129.996 36.6934 131.098 36.8516 132.094 36.8516C133.289 36.8516 134.203 36.623 134.836 36.166C135.48 35.709 135.803 35.0293 135.803 34.127C135.803 33.623 135.662 33.1777 135.381 32.791C135.1 32.3926 134.684 32.0117 134.133 31.6484C133.594 31.2852 132.486 30.7051 130.811 29.9082C129.24 29.1699 128.062 28.4609 127.277 27.7812C126.492 27.1016 125.865 26.3105 125.396 25.4082C124.928 24.5059 124.693 23.4512 124.693 22.2441C124.693 19.9707 125.461 18.1836 126.996 16.8828C128.543 15.582 130.676 14.9316 133.395 14.9316C134.73 14.9316 136.002 15.0898 137.209 15.4062C138.428 15.7227 139.699 16.168 141.023 16.7422L139.266 20.9785C137.895 20.416 136.758 20.0234 135.855 19.8008C134.965 19.5781 134.086 19.4668 133.219 19.4668C132.188 19.4668 131.396 19.707 130.846 20.1875C130.295 20.668 130.02 21.2949 130.02 22.0684C130.02 22.5488 130.131 22.9707 130.354 23.334C130.576 23.6855 130.928 24.0312 131.408 24.3711C131.9 24.6992 133.055 25.2969 134.871 26.1641C137.273 27.3125 138.92 28.4668 139.811 29.627C140.701 30.7754 141.146 32.1875 141.146 33.8633ZM169.131 28.1152C169.131 32.3691 168.076 35.6387 165.967 37.9238C163.857 40.209 160.834 41.3516 156.896 41.3516C152.959 41.3516 149.936 40.209 147.826 37.9238C145.717 35.6387 144.662 32.3574 144.662 28.0801C144.662 23.8027 145.717 20.5391 147.826 18.2891C149.947 16.0273 152.982 14.8965 156.932 14.8965C160.881 14.8965 163.898 16.0332 165.984 18.3066C168.082 20.5801 169.131 23.8496 169.131 28.1152ZM150.375 28.1152C150.375 30.9863 150.92 33.1484 152.01 34.6016C153.1 36.0547 154.729 36.7812 156.896 36.7812C161.244 36.7812 163.418 33.8926 163.418 28.1152C163.418 22.3262 161.256 19.4316 156.932 19.4316C154.764 19.4316 153.129 20.1641 152.027 21.6289C150.926 23.082 150.375 25.2441 150.375 28.1152ZM195.375 15.3008V31.9297C195.375 33.8281 194.947 35.4922 194.092 36.9219C193.248 38.3516 192.023 39.4473 190.418 40.209C188.812 40.9707 186.914 41.3516 184.723 41.3516C181.418 41.3516 178.852 40.5078 177.023 38.8203C175.195 37.1211 174.281 34.8008 174.281 31.8594V15.3008H179.713V31.0332C179.713 33.0137 180.111 34.4668 180.908 35.3926C181.705 36.3184 183.023 36.7812 184.863 36.7812C186.645 36.7812 187.934 36.3184 188.73 35.3926C189.539 34.4551 189.943 32.9902 189.943 30.998V15.3008H195.375ZM224.467 41H217.541L206.361 21.5586H206.203C206.426 24.9922 206.537 27.4414 206.537 28.9062V41H201.668V15.3008H208.541L219.703 34.5488H219.826C219.65 31.209 219.562 28.8477 219.562 27.4648V15.3008H224.467V41ZM252.275 27.9043C252.275 32.1348 251.068 35.375 248.654 37.625C246.252 39.875 242.777 41 238.23 41H230.953V15.3008H239.021C243.217 15.3008 246.475 16.4082 248.795 18.623C251.115 20.8379 252.275 23.9316 252.275 27.9043ZM246.615 28.0449C246.615 22.5254 244.178 19.7656 239.303 19.7656H236.402V36.5H238.74C243.99 36.5 246.615 33.6816 246.615 28.0449Z" fill="white"/>
</svg>
