
<svg width="27" height="14" viewBox="0 0 27 14" fill="none" xmlns="http://www.w3.org/2000/svg">
<path d="M25.2459 13.9628C26.0207 13.9628 26.6487 13.3377 26.6487 12.5665C26.6487 11.7954 26.0207 11.1702 25.2459 11.1702C24.4711 11.1702 23.843 11.7954 23.843 12.5665C23.843 13.3377 24.4711 13.9628 25.2459 13.9628Z" fill="white"/>
<path d="M15.0752 13.9628C15.85 13.9628 16.4781 13.3377 16.4781 12.5665C16.4781 11.7954 15.85 11.1702 15.0752 11.1702C14.3004 11.1702 13.6723 11.7954 13.6723 12.5665C13.6723 13.3377 14.3004 13.9628 15.0752 13.9628Z" fill="white"/>
<path d="M26.298 9.42491H15.3456L15.5795 9.04721C15.6798 8.88525 15.7093 8.68942 15.6612 8.50511L15.4329 7.63034L25.5976 7.10464C25.9831 7.08509 26.298 6.75452 26.298 6.37054V1.74535C26.298 1.36138 25.9824 1.04721 25.5966 1.04721H13.714L13.5769 0.522559C13.5378 0.372922 13.45 0.240424 13.3271 0.145851C13.2042 0.0512772 13.0533 -2.20551e-05 12.8979 7.11324e-09H10.5159C10.3299 7.11324e-09 10.1514 0.0735539 10.0199 0.204481C9.88835 0.335408 9.81445 0.512983 9.81445 0.698141C9.81445 0.8833 9.88835 1.06087 10.0199 1.1918C10.1514 1.32273 10.3299 1.39628 10.5159 1.39628H12.3557L14.2285 8.56794L13.492 9.75653C13.4265 9.86228 13.3906 9.98353 13.3879 10.1077C13.3853 10.232 13.416 10.3546 13.477 10.463C13.5377 10.5716 13.6264 10.662 13.734 10.725C13.8416 10.788 13.9641 10.8212 14.089 10.8212H26.298C26.4841 10.8212 26.6625 10.7476 26.794 10.6167C26.9256 10.4858 26.9995 10.3082 26.9995 10.123C26.9995 9.93789 26.9256 9.76032 26.794 9.62939C26.6625 9.49846 26.4841 9.42491 26.298 9.42491Z" fill="white"/>
<line x1="1" y1="6.51758" x2="9.74063" y2="6.51758" stroke="white" stroke-width="2" stroke-linecap="round"/>
<line x1="5.29687" y1="2.07422" x2="5.29687" y2="10.8148" stroke="white" stroke-width="2" stroke-linecap="round"/>
</svg>
