
<svg width="23" height="19" viewBox="0 0 23 19" fill="none" xmlns="http://www.w3.org/2000/svg">
<path d="M20.6531 19C21.69 19 22.5306 18.1493 22.5306 17.1C22.5306 16.0507 21.69 15.2 20.6531 15.2C19.6161 15.2 18.7755 16.0507 18.7755 17.1C18.7755 18.1493 19.6161 19 20.6531 19Z" fill="#767676"/>
<path d="M7.04086 19C8.0778 19 8.91841 18.1493 8.91841 17.1C8.91841 16.0507 8.0778 15.2 7.04086 15.2C6.00391 15.2 5.16331 16.0507 5.16331 17.1C5.16331 18.1493 6.00391 19 7.04086 19Z" fill="#767676"/>
<path d="M22.0612 12.825H7.40271L7.7158 12.3111C7.85004 12.0907 7.88947 11.8242 7.82516 11.5734L7.51959 10.383L21.1239 9.66769C21.6397 9.64109 22.0612 9.19126 22.0612 8.66876V2.375C22.0612 1.8525 21.6388 1.425 21.1224 1.425H5.21912L5.03559 0.711076C4.98331 0.507456 4.86571 0.327159 4.70124 0.198467C4.53678 0.0697759 4.33475 -3.00117e-05 4.12686 9.67939e-09H0.938775C0.689797 9.67939e-09 0.451016 0.100089 0.274961 0.278249C0.0989064 0.456409 0 0.698045 0 0.950001C0 1.20196 0.0989064 1.44359 0.274961 1.62175C0.451016 1.79991 0.689797 1.9 0.938775 1.9H3.40118L5.90771 11.6589L4.922 13.2763C4.83432 13.4202 4.78622 13.5852 4.78267 13.7542C4.77913 13.9232 4.82026 14.0901 4.90182 14.2377C4.98304 14.3854 5.10181 14.5085 5.24582 14.5941C5.38982 14.6798 5.55384 14.725 5.7209 14.725H22.0612C22.3102 14.725 22.549 14.6249 22.725 14.4468C22.9011 14.2686 23 14.027 23 13.775C23 13.5231 22.9011 13.2814 22.725 13.1033C22.549 12.9251 22.3102 12.825 22.0612 12.825Z" fill="#767676"/>
</svg>
