<svg width="27" height="26" viewBox="0 0 27 26" fill="none" xmlns="http://www.w3.org/2000/svg">
<path d="M19.1098 16.8077C20.6856 14.6604 21.3914 11.998 21.0859 9.35332C20.7805 6.70862 19.4864 4.27661 17.4626 2.54384C15.4387 0.81107 12.8344 -0.0946645 10.1705 0.00783994C7.50669 0.110344 4.97984 1.21353 3.0955 3.09668C1.21116 4.97984 0.108298 7.50409 0.00756155 10.1644C-0.0931746 12.8247 0.815641 15.425 2.55219 17.4449C4.28873 19.4648 6.72494 20.7554 9.37342 21.0585C12.0219 21.3616 14.6873 20.6549 16.8364 19.0797H16.8348C16.8836 19.1447 16.9357 19.2065 16.9943 19.2666L23.2596 25.5235C23.5647 25.8284 23.9787 25.9998 24.4104 26C24.8421 26.0002 25.2561 25.829 25.5615 25.5243C25.8668 25.2196 26.0385 24.8062 26.0386 24.3751C26.0388 23.944 25.8674 23.5305 25.5623 23.2255L19.297 16.9686C19.2388 16.9098 19.1762 16.8555 19.1098 16.8061V16.8077ZM19.5297 10.5606C19.5297 11.7344 19.2982 12.8967 18.8484 13.9812C18.3986 15.0656 17.7393 16.051 16.9082 16.881C16.0771 17.711 15.0904 18.3694 14.0044 18.8186C12.9185 19.2678 11.7546 19.499 10.5793 19.499C9.40387 19.499 8.23999 19.2678 7.15407 18.8186C6.06815 18.3694 5.08146 17.711 4.25034 16.881C3.41921 16.051 2.75993 15.0656 2.31013 13.9812C1.86032 12.8967 1.62881 11.7344 1.62881 10.5606C1.62881 8.18996 2.57181 5.91644 4.25034 4.24016C5.92887 2.56388 8.20545 1.62216 10.5793 1.62216C12.9531 1.62216 15.2296 2.56388 16.9082 4.24016C18.5867 5.91644 19.5297 8.18996 19.5297 10.5606Z" fill="white" fill-opacity="0.56"/>
</svg>
