<svg width="19" height="19" viewBox="0 0 19 19" fill="none" xmlns="http://www.w3.org/2000/svg">
<path d="M12.6144 9.50249C12.6144 8.86817 12.4262 8.24812 12.0736 7.7208C11.7211 7.19348 11.22 6.78261 10.6338 6.5402C10.0477 6.29779 9.40274 6.23473 8.78072 6.359C8.15869 6.48327 7.58752 6.78929 7.13949 7.23833C6.69146 7.68736 6.38672 8.25922 6.26385 8.88152C6.14097 9.50383 6.20548 10.1486 6.44921 10.7342C6.69294 11.3198 7.10493 11.82 7.63303 12.1714C8.16114 12.5227 8.78162 12.7095 9.41594 12.7081C10.2649 12.7062 11.0784 12.3676 11.678 11.7667C12.2776 11.1657 12.6144 10.3514 12.6144 9.50249ZM9.41594 11.5869C9.0103 11.5882 8.61333 11.4696 8.27499 11.2458C7.93666 11.0221 7.67209 10.7032 7.51459 10.3294C7.3571 9.95556 7.31372 9.54351 7.38992 9.14509C7.46613 8.74668 7.6585 8.37971 7.94282 8.0904C8.22715 7.80109 8.59071 7.60237 8.98774 7.51925C9.38477 7.43613 9.79752 7.47233 10.174 7.6233C10.5505 7.77427 10.8739 8.03326 11.1035 8.36765C11.3332 8.70204 11.4587 9.0969 11.4644 9.50249C11.4682 9.77425 11.4181 10.0441 11.3169 10.2963C11.2158 10.5486 11.0656 10.7783 10.8751 10.9721C10.6846 11.1659 10.4575 11.3201 10.2071 11.4256C9.95662 11.5311 9.68772 11.5859 9.41594 11.5869Z" fill="white"/>
<path d="M9.40937 1.90453H9.49562V0.761719H9.40937C7.11998 0.762903 4.92167 1.65868 3.28347 3.25794C1.64527 4.8572 0.696875 7.03332 0.640625 9.32203H1.79063C1.8449 7.33709 2.67126 5.4516 4.09401 4.06643C5.51676 2.68126 7.42369 1.90566 9.40937 1.90453Z" fill="white"/>
<path d="M18.1825 9.50195H17.0397C17.0446 11.4817 16.2794 13.3858 14.9059 14.8116C13.5324 16.2374 11.6583 17.0732 9.67969 17.1423V18.2923C11.9627 18.2212 14.1282 17.2636 15.717 15.6226C17.3057 13.9815 18.1927 11.7861 18.1897 9.50195H18.1825Z" fill="white"/>
<path d="M9.50187 4.46891V3.34766H9.41562C7.81161 3.35041 6.27119 3.97513 5.11837 5.09042C3.96555 6.2057 3.2902 7.72462 3.23438 9.32766H4.38438C4.43638 8.02847 4.98933 6.79987 5.9273 5.89942C6.86526 4.99898 8.1154 4.49662 9.41562 4.49766L9.50187 4.46891Z" fill="white"/>
<path d="M9.67969 14.5332V15.6832C11.2719 15.6129 12.7756 14.9309 13.8776 13.7794C14.9795 12.628 15.5947 11.0957 15.595 9.50195H14.445C14.4468 10.7915 13.9534 12.0325 13.0666 12.9688C12.1798 13.905 10.9674 14.465 9.67969 14.5332Z" fill="white"/>
</svg>
