<svg width="37" height="25" viewBox="0 0 37 25" fill="none" xmlns="http://www.w3.org/2000/svg">
<path id="Vector" d="M23.8631 0C16.5459 0 10.7263 5.61688 10.7263 12.5C10.7263 19.4625 16.6293 25 23.8631 25C31.0963 25 37 19.3831 37 12.5C37 5.61688 31.0963 0 23.8631 0ZM23.8631 17.0887C21.2023 17.0887 18.9565 14.9525 18.9565 12.4206C18.9565 9.88937 21.2023 7.75312 23.8631 7.75312C26.5233 7.75312 28.7684 9.88937 28.7684 12.4206C28.685 15.0319 26.5233 17.0887 23.8625 17.0887H23.8631ZM10.6428 3.56V21.7563H5.98582L0 3.56H10.6428Z" fill="#8B3FFD"/>
</svg>
